<svg xmlns="http://www.w3.org/2000/svg" width="900" height="520" viewBox="0 0 900 520">
    <rect width="100%" height="100%" fill="#fbf8f3"/>
    <text x="450" y="40" text-anchor="middle" font-family="Arial, sans-serif" font-size="26" fill="#2b2b2b" font-weight="700">Apriori Frequent Itemsets</text>
    <text x="450" y="66" text-anchor="middle" font-family="Arial, sans-serif" font-size="14" fill="#666">Support threshold = 0.2</text>
    <line x1="110" y1="410" x2="810" y2="410" stroke="#222" stroke-width="2"/>
    <line x1="110" y1="410" x2="110" y2="90" stroke="#222" stroke-width="2"/>
    <g font-family="Arial, sans-serif" font-size="13" fill="#333" text-anchor="middle">
        <text x="150" y="438">Milk</text>
        <text x="250" y="438">Bread</text>
        <text x="350" y="438">Eggs</text>
        <text x="470" y="438">Milk&amp;Bread</text>
        <text x="610" y="438">Bread&amp;Eggs</text>
        <text x="740" y="438">Milk&amp;Eggs</text>
    </g>
    <g fill="#264653">
        <rect x="130" y="260" width="40" height="150" rx="5"/>
        <rect x="230" y="190" width="40" height="220" rx="5"/>
        <rect x="330" y="230" width="40" height="180" rx="5"/>
        <rect x="450" y="300" width="40" height="110" rx="5"/>
        <rect x="590" y="320" width="40" height="90" rx="5"/>
        <rect x="720" y="340" width="40" height="70" rx="5"/>
    </g>
    <g font-family="Arial, sans-serif" font-size="13" fill="#333">
        <text x="142" y="250" text-anchor="middle">0.47</text>
        <text x="242" y="180" text-anchor="middle">0.62</text>
        <text x="342" y="220" text-anchor="middle">0.51</text>
        <text x="462" y="290" text-anchor="middle">0.31</text>
        <text x="602" y="310" text-anchor="middle">0.25</text>
        <text x="732" y="330" text-anchor="middle">0.20</text>
    </g>
    <text x="58" y="250" transform="rotate(-90 58 250)" text-anchor="middle" font-family="Arial, sans-serif" font-size="16" fill="#333">Support</text>
</svg>