<svg xmlns="http://www.w3.org/2000/svg" width="900" height="520" viewBox="0 0 900 520">
    <rect width="100%" height="100%" fill="#fbf8f3"/>
    <text x="450" y="40" text-anchor="middle" font-family="Arial, sans-serif" font-size="26" fill="#2b2b2b" font-weight="700">Boosting: Cross Validation and AdaBoost</text>
    <text x="450" y="66" text-anchor="middle" font-family="Arial, sans-serif" font-size="14" fill="#666">Fold scores compared with final boosted accuracy</text>
    <line x1="110" y1="410" x2="810" y2="410" stroke="#222" stroke-width="2"/>
    <line x1="110" y1="410" x2="110" y2="90" stroke="#222" stroke-width="2"/>
    <g font-family="Arial, sans-serif" font-size="13" fill="#333" text-anchor="middle">
        <text x="180" y="438">Fold 1</text>
        <text x="280" y="438">Fold 2</text>
        <text x="380" y="438">Fold 3</text>
        <text x="500" y="438">Fold 4</text>
        <text x="600" y="438">Fold 5</text>
        <text x="730" y="438">AdaBoost</text>
    </g>
    <g>
        <rect x="150" y="180" width="50" height="230" rx="6" fill="#457b9d"/>
        <rect x="250" y="195" width="50" height="215" rx="6" fill="#457b9d"/>
        <rect x="350" y="170" width="50" height="240" rx="6" fill="#457b9d"/>
        <rect x="470" y="185" width="50" height="225" rx="6" fill="#457b9d"/>
        <rect x="570" y="175" width="50" height="235" rx="6" fill="#457b9d"/>
        <rect x="700" y="140" width="50" height="270" rx="6" fill="#e76f51"/>
    </g>
    <g font-family="Arial, sans-serif" font-size="13" fill="#333">
        <text x="175" y="170" text-anchor="middle">0.82</text>
        <text x="275" y="185" text-anchor="middle">0.79</text>
        <text x="375" y="160" text-anchor="middle">0.85</text>
        <text x="495" y="175" text-anchor="middle">0.81</text>
        <text x="595" y="165" text-anchor="middle">0.84</text>
        <text x="725" y="130" text-anchor="middle">0.90</text>
    </g>
    <text x="58" y="250" transform="rotate(-90 58 250)" text-anchor="middle" font-family="Arial, sans-serif" font-size="16" fill="#333">Score / Accuracy</text>
</svg>