<svg xmlns="http://www.w3.org/2000/svg" width="900" height="520" viewBox="0 0 900 520">
    <rect width="100%" height="100%" fill="#fbf8f3"/>
    <text x="450" y="40" text-anchor="middle" font-family="Arial, sans-serif" font-size="26" fill="#2b2b2b" font-weight="700">Hierarchical Clustering Dendrogram</text>
    <text x="450" y="66" text-anchor="middle" font-family="Arial, sans-serif" font-size="14" fill="#666">Ward linkage style tree for six samples</text>
    <line x1="110" y1="420" x2="800" y2="420" stroke="#222" stroke-width="2"/>
    <line x1="110" y1="420" x2="110" y2="90" stroke="#222" stroke-width="2"/>
    <g stroke="#4a4a4a" stroke-width="3" fill="none" stroke-linecap="round">
        <line x1="170" y1="420" x2="170" y2="360"/>
        <line x1="240" y1="420" x2="240" y2="330"/>
        <line x1="310" y1="420" x2="310" y2="300"/>
        <line x1="380" y1="420" x2="380" y2="345"/>
        <line x1="450" y1="420" x2="450" y2="320"/>
        <line x1="520" y1="420" x2="520" y2="285"/>
        <line x1="170" y1="360" x2="240" y2="360"/>
        <line x1="310" y1="300" x2="380" y2="300"/>
        <line x1="450" y1="320" x2="520" y2="320"/>
        <line x1="205" y1="360" x2="205" y2="285"/>
        <line x1="345" y1="300" x2="345" y2="245"/>
        <line x1="485" y1="285" x2="485" y2="210"/>
        <line x1="205" y1="285" x2="345" y2="285"/>
        <line x1="275" y1="285" x2="275" y2="205"/>
        <line x1="275" y1="205" x2="485" y2="205"/>
        <line x1="380" y1="205" x2="380" y2="140"/>
        <line x1="380" y1="140" x2="620" y2="140"/>
    </g>
    <g font-family="Arial, sans-serif" font-size="15" fill="#333" text-anchor="middle">
        <text x="170" y="446">1</text>
        <text x="240" y="446">2</text>
        <text x="310" y="446">3</text>
        <text x="380" y="446">4</text>
        <text x="450" y="446">5</text>
        <text x="520" y="446">6</text>
    </g>
    <text x="655" y="152" font-family="Arial, sans-serif" font-size="14" fill="#666">higher merge distance</text>
    <line x1="620" y1="140" x2="620" y2="140" stroke="#000"/>
    <text x="470" y="485" text-anchor="middle" font-family="Arial, sans-serif" font-size="16" fill="#333">Sample index</text>
    <text x="58" y="250" transform="rotate(-90 58 250)" text-anchor="middle" font-family="Arial, sans-serif" font-size="16" fill="#333">Distance</text>
</svg>