<svg xmlns="http://www.w3.org/2000/svg" width="900" height="520" viewBox="0 0 900 520">
    <rect width="100%" height="100%" fill="#fff"/>
    <text x="450" y="40" text-anchor="middle" font-family="Arial" font-size="26" fill="#000">K-means Elbow Curve</text>
    <line x1="110" y1="420" x2="810" y2="420" stroke="#000" stroke-width="2"/>
    <line x1="110" y1="420" x2="110" y2="90" stroke="#000" stroke-width="2"/>
    <polyline points="140,150 240,210 340,270 440,300 540,325 640,342 740,355" fill="none" stroke="#000" stroke-width="4"/>
    <g fill="#000">
        <circle cx="140" cy="150" r="5"/>
        <circle cx="240" cy="210" r="5"/>
        <circle cx="340" cy="270" r="5"/>
        <circle cx="440" cy="300" r="5"/>
        <circle cx="540" cy="325" r="5"/>
        <circle cx="640" cy="342" r="5"/>
        <circle cx="740" cy="355" r="5"/>
    </g>
    <line x1="340" y1="110" x2="340" y2="420" stroke="#000" stroke-dasharray="8 6"/>
    <text x="350" y="120" font-family="Arial" font-size="14" fill="#000">elbow at k=3</text>
    <text x="450" y="460" text-anchor="middle" font-family="Arial" font-size="16" fill="#000">Number of Clusters (k)</text>
    <text x="55" y="255" transform="rotate(-90 55 255)" text-anchor="middle" font-family="Arial" font-size="16" fill="#000">Inertia</text>
</svg>