<svg xmlns="http://www.w3.org/2000/svg" width="900" height="520" viewBox="0 0 900 520">
    <rect width="100%" height="100%" fill="#fbf8f3"/>
    <text x="450" y="40" text-anchor="middle" font-family="Arial, sans-serif" font-size="26" fill="#2b2b2b" font-weight="700">K-means Clustering on Iris Data</text>
    <text x="450" y="66" text-anchor="middle" font-family="Arial, sans-serif" font-size="14" fill="#666">Illustrative scatter plot with 3 clusters</text>
    <line x1="110" y1="410" x2="810" y2="410" stroke="#222" stroke-width="2"/>
    <line x1="110" y1="410" x2="110" y2="90" stroke="#222" stroke-width="2"/>
    <text x="460" y="455" text-anchor="middle" font-family="Arial, sans-serif" font-size="16" fill="#333">Feature 1</text>
    <text x="58" y="250" transform="rotate(-90 58 250)" text-anchor="middle" font-family="Arial, sans-serif" font-size="16" fill="#333">Feature 2</text>
    <g fill="#e76f51" opacity="0.92" stroke="#b5482f" stroke-width="1.2">
        <circle cx="185" cy="300" r="8"/>
        <circle cx="215" cy="275" r="8"/>
        <circle cx="240" cy="320" r="8"/>
        <circle cx="205" cy="340" r="8"/>
        <circle cx="250" cy="290" r="8"/>
        <circle cx="170" cy="330" r="8"/>
        <circle cx="230" cy="255" r="8"/>
        <circle cx="260" cy="345" r="8"/>
    </g>
    <g fill="#2a9d8f" opacity="0.92" stroke="#16706a" stroke-width="1.2">
        <circle cx="420" cy="230" r="8"/>
        <circle cx="450" cy="205" r="8"/>
        <circle cx="480" cy="240" r="8"/>
        <circle cx="405" cy="270" r="8"/>
        <circle cx="470" cy="280" r="8"/>
        <circle cx="500" cy="215" r="8"/>
        <circle cx="440" cy="255" r="8"/>
        <circle cx="515" cy="250" r="8"/>
    </g>
    <g fill="#457b9d" opacity="0.92" stroke="#2f5a75" stroke-width="1.2">
        <circle cx="640" cy="160" r="8"/>
        <circle cx="670" cy="185" r="8"/>
        <circle cx="700" cy="150" r="8"/>
        <circle cx="730" cy="210" r="8"/>
        <circle cx="655" cy="220" r="8"/>
        <circle cx="685" cy="250" r="8"/>
        <circle cx="720" cy="175" r="8"/>
        <circle cx="760" cy="225" r="8"/>
    </g>
    <rect x="120" y="100" width="120" height="18" rx="9" fill="#e76f51" opacity="0.85"/>
    <text x="250" y="114" font-family="Arial, sans-serif" font-size="14" fill="#333">Cluster 1</text>
    <rect x="120" y="125" width="120" height="18" rx="9" fill="#2a9d8f" opacity="0.85"/>
    <text x="250" y="139" font-family="Arial, sans-serif" font-size="14" fill="#333">Cluster 2</text>
    <rect x="120" y="150" width="120" height="18" rx="9" fill="#457b9d" opacity="0.85"/>
    <text x="250" y="164" font-family="Arial, sans-serif" font-size="14" fill="#333">Cluster 3</text>
</svg>