<svg xmlns="http://www.w3.org/2000/svg" width="900" height="520" viewBox="0 0 900 520">
    <rect width="100%" height="100%" fill="#fbf8f3"/>
    <text x="450" y="40" text-anchor="middle" font-family="Arial, sans-serif" font-size="26" fill="#2b2b2b" font-weight="700">Market Basket Analysis Rules</text>
    <text x="450" y="66" text-anchor="middle" font-family="Arial, sans-serif" font-size="14" fill="#666">Confidence of sample association rules</text>
    <line x1="110" y1="410" x2="810" y2="410" stroke="#222" stroke-width="2"/>
    <line x1="110" y1="410" x2="110" y2="90" stroke="#222" stroke-width="2"/>
    <g font-family="Arial, sans-serif" font-size="13" fill="#333" text-anchor="middle">
        <text x="170" y="438">Coffee->Bread</text>
        <text x="320" y="438">Tea->Coffee</text>
        <text x="470" y="438">Butter->Bread</text>
        <text x="630" y="438">Milk->Sugar</text>
        <text x="770" y="438">Tea->Butter</text>
    </g>
    <g fill="#e9c46a">
        <rect x="140" y="150" width="60" height="260" rx="6"/>
        <rect x="290" y="190" width="60" height="220" rx="6"/>
        <rect x="440" y="230" width="60" height="180" rx="6"/>
        <rect x="600" y="250" width="60" height="160" rx="6"/>
        <rect x="740" y="320" width="60" height="90" rx="6"/>
    </g>
    <g font-family="Arial, sans-serif" font-size="13" fill="#333">
        <text x="170" y="140" text-anchor="middle">0.86</text>
        <text x="320" y="180" text-anchor="middle">0.79</text>
        <text x="470" y="220" text-anchor="middle">0.71</text>
        <text x="630" y="240" text-anchor="middle">0.68</text>
        <text x="770" y="310" text-anchor="middle">0.42</text>
    </g>
    <text x="58" y="250" transform="rotate(-90 58 250)" text-anchor="middle" font-family="Arial, sans-serif" font-size="16" fill="#333">Confidence</text>
</svg>