<svg xmlns="http://www.w3.org/2000/svg" width="900" height="520" viewBox="0 0 900 520">
    <rect width="100%" height="100%" fill="#fbf8f3"/>
    <text x="450" y="40" text-anchor="middle" font-family="Arial, sans-serif" font-size="26" fill="#2b2b2b" font-weight="700">Reinforcement Learning: Reward and Q-table</text>
    <text x="450" y="66" text-anchor="middle" font-family="Arial, sans-serif" font-size="14" fill="#666">Reward improves as the policy gets better</text>
    <rect x="90" y="95" width="430" height="330" rx="14" fill="#fff" stroke="#d9d2c7"/>
    <rect x="560" y="95" width="250" height="330" rx="14" fill="#fff" stroke="#d9d2c7"/>
    <text x="305" y="122" text-anchor="middle" font-family="Arial, sans-serif" font-size="16" fill="#333" font-weight="700">Episode Reward</text>
    <line x1="130" y1="380" x2="470" y2="380" stroke="#222" stroke-width="2"/>
    <line x1="130" y1="380" x2="130" y2="140" stroke="#222" stroke-width="2"/>
    <path d="M130 355 C170 360, 200 340, 230 330 S290 290, 320 260 S380 220, 410 180 S445 150, 470 145" fill="none" stroke="#2a9d8f" stroke-width="5"/>
    <g fill="#2a9d8f" opacity="0.9">
        <circle cx="130" cy="355" r="5"/>
        <circle cx="170" cy="352" r="5"/>
        <circle cx="210" cy="335" r="5"/>
        <circle cx="250" cy="325" r="5"/>
        <circle cx="290" cy="300" r="5"/>
        <circle cx="330" cy="265" r="5"/>
        <circle cx="370" cy="220" r="5"/>
        <circle cx="410" cy="180" r="5"/>
        <circle cx="450" cy="150" r="5"/>
    </g>
    <text x="300" y="425" text-anchor="middle" font-family="Arial, sans-serif" font-size="14" fill="#333">Episodes</text>
    <text x="104" y="255" transform="rotate(-90 104 255)" text-anchor="middle" font-family="Arial, sans-serif" font-size="14" fill="#333">Reward</text>
    <text x="685" y="122" text-anchor="middle" font-family="Arial, sans-serif" font-size="16" fill="#333" font-weight="700">Learned Q-table</text>
    <g font-family="Arial, sans-serif" font-size="13" fill="#333" text-anchor="middle">
        <text x="605" y="166">A0</text>
        <text x="695" y="166">A1</text>
        <text x="585" y="210">S0</text>
        <text x="585" y="260">S1</text>
        <text x="585" y="310">S2</text>
        <text x="585" y="360">S3</text>
    </g>
    <g>
        <rect x="620" y="180" width="70" height="40" fill="#e76f51" opacity="0.35" stroke="#999"/>
        <rect x="690" y="180" width="70" height="40" fill="#e76f51" opacity="0.78" stroke="#999"/>
        <rect x="620" y="220" width="70" height="40" fill="#e76f51" opacity="0.2" stroke="#999"/>
        <rect x="690" y="220" width="70" height="40" fill="#e76f51" opacity="0.5" stroke="#999"/>
        <rect x="620" y="260" width="70" height="40" fill="#e76f51" opacity="0.25" stroke="#999"/>
        <rect x="690" y="260" width="70" height="40" fill="#e76f51" opacity="0.62" stroke="#999"/>
        <rect x="620" y="300" width="70" height="40" fill="#e76f51" opacity="0.15" stroke="#999"/>
        <rect x="690" y="300" width="70" height="40" fill="#e76f51" opacity="0.42" stroke="#999"/>
        <text x="655" y="205" text-anchor="middle" font-family="Arial, sans-serif" font-size="12" fill="#222">0.2</text>
        <text x="725" y="205" text-anchor="middle" font-family="Arial, sans-serif" font-size="12" fill="#222">0.8</text>
        <text x="655" y="245" text-anchor="middle" font-family="Arial, sans-serif" font-size="12" fill="#222">0.1</text>
        <text x="725" y="245" text-anchor="middle" font-family="Arial, sans-serif" font-size="12" fill="#222">0.5</text>
        <text x="655" y="285" text-anchor="middle" font-family="Arial, sans-serif" font-size="12" fill="#222">0.3</text>
        <text x="725" y="285" text-anchor="middle" font-family="Arial, sans-serif" font-size="12" fill="#222">0.7</text>
        <text x="655" y="325" text-anchor="middle" font-family="Arial, sans-serif" font-size="12" fill="#222">0.0</text>
        <text x="725" y="325" text-anchor="middle" font-family="Arial, sans-serif" font-size="12" fill="#222">0.4</text>
    </g>
</svg>