<svg xmlns="http://www.w3.org/2000/svg" width="900" height="520" viewBox="0 0 900 520">
    <rect width="100%" height="100%" fill="#fff"/>
    <text x="450" y="40" text-anchor="middle" font-family="Arial" font-size="26" fill="#000">ACF and PACF Diagnostics</text>
    <rect x="110" y="90" width="330" height="330" fill="#fff" stroke="#000"/>
    <rect x="460" y="90" width="330" height="330" fill="#fff" stroke="#000"/>
    <text x="275" y="115" text-anchor="middle" font-family="Arial" font-size="15" fill="#000">ACF</text>
    <text x="625" y="115" text-anchor="middle" font-family="Arial" font-size="15" fill="#000">PACF</text>
    <line x1="130" y1="260" x2="420" y2="260" stroke="#000"/>
    <line x1="480" y1="260" x2="770" y2="260" stroke="#000"/>
    <rect x="150" y="200" width="18" height="60" fill="#000"/>
    <rect x="185" y="220" width="18" height="40" fill="#000"/>
    <rect x="220" y="235" width="18" height="25" fill="#000"/>
    <rect x="255" y="245" width="18" height="15" fill="#000"/>
    <rect x="515" y="185" width="18" height="75" fill="#000"/>
    <rect x="550" y="230" width="18" height="30" fill="#000"/>
    <rect x="585" y="245" width="18" height="15" fill="#000"/>
    <rect x="620" y="250" width="18" height="10" fill="#000"/>
    <line x1="130" y1="205" x2="420" y2="205" stroke="#000" stroke-dasharray="6 5"/>
    <line x1="480" y1="205" x2="770" y2="205" stroke="#000" stroke-dasharray="6 5"/>
    <text x="450" y="470" text-anchor="middle" font-family="Arial" font-size="16" fill="#000">Lags and Correlations</text>
</svg>